<?xml version="1.0" standalone="no"?>
<!DOCTYPE svg PUBLIC "-//W3C//DTD SVG 20010904//EN"
 "http://www.w3.org/TR/2001/REC-SVG-20010904/DTD/svg10.dtd">
<svg version="1.0" xmlns="http://www.w3.org/2000/svg"
 width="400.000000pt" height="400.000000pt" viewBox="0 0 400.000000 400.000000"
 preserveAspectRatio="xMidYMid meet">
<metadata>
Created by potrace 1.16, written by Peter Selinger 2001-2019
</metadata>
<g transform="translate(0.000000,400.000000) scale(0.100000,-0.100000)"
fill="#000000" stroke="none">
<path d="M270 3852 c-47 -6 -79 -24 -87 -50 -4 -15 -6 -835 -3 -1822 l5 -1794
25 -13 c20 -10 391 -13 1812 -13 1775 0 1788 0 1808 20 20 20 20 33 20 1824 0
1723 -1 1805 -18 1826 l-18 22 -1760 2 c-967 0 -1770 0 -1784 -2z m3303 -252
c9 0 26 -9 37 -20 20 -20 20 -33 20 -1584 0 -1479 -1 -1565 -18 -1586 l-17
-21 -1584 0 c-1120 0 -1588 4 -1595 11 -8 8 -12 475 -16 1573 -4 1320 -2 1595
13 1619 3 4 3097 14 3122 11 11 -2 28 -3 38 -3z"/>
<path d="M2451 2684 c-23 -29 -36 -99 -26 -142 4 -21 55 -81 166 -194 88 -90
162 -173 165 -185 16 -63 -28 -91 -121 -77 -35 5 -418 7 -908 4 l-849 -5 -24
-28 c-28 -32 -30 -66 -9 -107 33 -65 -15 -62 977 -58 l900 3 19 -24 c28 -35
24 -69 -12 -100 -49 -41 -149 -143 -178 -181 -14 -19 -44 -50 -65 -70 -21 -19
-45 -49 -53 -67 -14 -34 -17 -100 -7 -128 8 -20 56 -45 86 -45 53 0 194 126
587 522 l93 95 5 65 c3 37 1 80 -6 99 -12 37 -399 436 -559 577 -72 63 -87 72
-121 72 -31 0 -44 -6 -60 -26z"/>
</g>
</svg>
